<svg xmlns="http://www.w3.org/2000/svg" xmlns:xlink="http://www.w3.org/1999/xlink" width="200" zoomAndPan="magnify" viewBox="0 0 150 37.5" height="50" preserveAspectRatio="xMidYMid meet" version="1.0"><defs><g/><clipPath id="a6ddf6b13e"><path d="M 0.988281 0 L 149.011719 0 L 149.011719 37.007812 L 0.988281 37.007812 Z M 0.988281 0 " clip-rule="nonzero"/></clipPath></defs><g clip-path="url(#a6ddf6b13e)"><path fill="#ffffff" d="M 0.988281 0 L 149.011719 0 L 149.011719 44.40625 L 0.988281 44.40625 Z M 0.988281 0 " fill-opacity="1" fill-rule="nonzero"/><path fill="#ffffff" d="M 0.988281 0 L 149.011719 0 L 149.011719 37.007812 L 0.988281 37.007812 Z M 0.988281 0 " fill-opacity="1" fill-rule="nonzero"/><path fill="#d54c15" d="M 0.988281 0 L 149.011719 0 L 149.011719 37.007812 L 0.988281 37.007812 Z M 0.988281 0 " fill-opacity="1" fill-rule="nonzero"/></g><g fill="#ffffff" fill-opacity="1"><g transform="translate(8.391418, 30.448506)"><g><path d="M 3.65625 0 L 6.808594 0 L 6.808594 -19.207031 L 15.121094 -6.664062 L 17.703125 -6.664062 L 26.015625 -19.171875 L 26.015625 0 L 29.171875 0 L 29.171875 -25.085938 L 26.230469 -25.085938 L 16.449219 -10.214844 L 6.59375 -25.085938 L 3.65625 -25.085938 Z M 3.65625 0 "/></g></g></g><g fill="#ffffff" fill-opacity="1"><g transform="translate(41.217113, 30.448506)"><g><path d="M 0.609375 0 L 3.976562 0 L 6.269531 -5.699219 L 18.492188 -5.699219 L 20.855469 0 L 24.1875 0 L 13.867188 -25.085938 L 10.929688 -25.085938 Z M 7.488281 -8.636719 L 12.398438 -20.675781 L 17.308594 -8.636719 Z M 7.488281 -8.636719 "/></g></g></g><g fill="#ffffff" fill-opacity="1"><g transform="translate(66.015567, 30.448506)"><g><path d="M 14.765625 0.464844 C 20.855469 0.464844 25.800781 -3.226562 27.308594 -8.816406 L 23.972656 -8.816406 C 22.683594 -5.054688 19.136719 -2.6875 14.871094 -2.6875 C 9.28125 -2.6875 5.304688 -6.738281 5.304688 -12.542969 C 5.304688 -18.347656 9.28125 -22.398438 14.871094 -22.398438 C 19.027344 -22.398438 22.433594 -20.175781 23.722656 -16.554688 L 27.089844 -16.554688 C 25.441406 -22.074219 20.675781 -25.550781 14.765625 -25.550781 C 7.382812 -25.550781 2.078125 -20.105469 2.078125 -12.542969 C 2.078125 -4.980469 7.382812 0.464844 14.765625 0.464844 Z M 14.765625 0.464844 "/></g></g></g><g fill="#ffffff" fill-opacity="1"><g transform="translate(95.257661, 30.448506)"><g><path d="M 12.003906 0.464844 C 17.488281 0.464844 21.035156 -2.222656 21.035156 -6.59375 C 21.035156 -10.285156 18.5625 -12.507812 12.148438 -14.082031 C 7.273438 -15.265625 5.660156 -16.554688 5.660156 -18.632812 C 5.660156 -21.035156 7.8125 -22.539062 11.394531 -22.539062 C 15.085938 -22.539062 17.378906 -20.675781 17.453125 -17.667969 L 20.570312 -17.667969 C 20.535156 -22.539062 17.023438 -25.550781 11.394531 -25.550781 C 5.914062 -25.550781 2.4375 -22.863281 2.4375 -18.632812 C 2.4375 -14.765625 5.195312 -12.613281 11.359375 -11.144531 C 15.875 -10.070312 17.773438 -8.816406 17.773438 -6.484375 C 17.773438 -4.011719 15.550781 -2.542969 12.003906 -2.542969 C 8.097656 -2.542969 5.375 -4.480469 5.304688 -7.703125 L 2.148438 -7.703125 C 2.1875 -2.796875 6.019531 0.464844 12.003906 0.464844 Z M 12.003906 0.464844 "/></g></g></g><g fill="#ffffff" fill-opacity="1"><g transform="translate(118.443485, 30.448506)"><g><path d="M 10.035156 0 L 13.117188 0 L 13.117188 -9.03125 L 22.539062 -25.085938 L 18.992188 -25.085938 L 11.609375 -12.398438 L 8.351562 -18.0625 L 4.265625 -25.085938 L 0.609375 -25.085938 L 10.035156 -9.03125 Z M 10.035156 0 "/></g></g></g></svg>